Coordinates
version=1
nRows=15
nColumns=42
inDegrees=yes

Units are S.I. units (second, meters, Newtons, ...)
If the header above contains a line with 'inDegrees', this indicates whether rotational values are in degrees (yes) or radians (no).

endheader
time	pelvis_tilt	pelvis_list	pelvis_rotation	pelvis_tx	pelvis_ty	pelvis_tz	hip_flexion_r	hip_adduction_r	hip_rotation_r	knee_angle_r	knee_adduction_r	knee_angle_r_beta	ankle_angle_r	subtalar_angle_r	mtp_angle_r	hip_flexion_l	hip_adduction_l	hip_rotation_l	knee_angle_l	knee_adduction_l	knee_angle_l_beta	ankle_angle_l	subtalar_angle_l	mtp_angle_l	lumbar_extension	lumbar_bending	lumbar_rotation	arm_flex_r	arm_add_r	arm_rot_r	elbow_flex_r	pro_sup_r	wrist_flex_r	wrist_dev_r	arm_flex_l	arm_add_l	arm_rot_l	elbow_flex_l	pro_sup_l	wrist_flex_l	wrist_dev_l
      1.44000000	      5.40857656	     -2.37025547	      7.60320066	     -1.01228019	      0.84922134	      0.21681690	     25.91758293	      3.65689222	    -24.52146296	     27.47045692	    -10.58882162	      0.47944992	      3.61586669	      7.15962200	     -7.50500909	    -18.80425582	     -0.21353573	      0.22767462	     28.38034302	     -5.73277278	      0.49533043	     23.48580781	      8.86087672	     -7.50500909	    -22.04523265	      5.58278993	     -0.32573150	     -6.69893539	    -16.59159966	     11.69646099	     33.98612215	     90.00000001	      0.00000000	      0.00000000	     25.65155366	    -21.08548333	     15.69819096	     55.75784319	     90.00000001	      0.00000000	      0.00000000
      1.45000000	      5.66286014	     -2.88353383	      7.44348304	     -0.99777970	      0.85065285	      0.21872300	     25.11855423	      4.66353901	    -23.98011839	     28.31366396	    -10.70133995	      0.49416666	      4.13640761	      6.47553040	     -7.50492615	    -18.22412851	     -1.11550548	     -0.24232992	     31.38523571	     -5.66043479	      0.54777570	     20.95378191	      8.37296347	     -7.50492615	    -22.18556985	      6.22073374	     -0.08837881	     -6.22175209	    -16.75399086	     11.67923764	     33.88513888	     90.00000001	      0.00000000	      0.00000000	     24.54829929	    -20.95183205	     15.44177022	     55.50850908	     90.00000001	      0.00000000	      0.00000000
      1.46000000	      5.51632303	     -3.34694597	      6.95022224	     -0.98399981	      0.85178697	      0.22108194	     24.69736733	      5.75554733	    -22.17055401	     29.13928011	    -10.28176382	      0.50857638	      3.83136740	      3.12870696	     -7.50447545	    -16.74979292	     -1.83694262	     -1.15807834	     35.09510183	     -5.70095077	      0.61252508	     18.55751010	      7.57746682	     -7.50447545	    -21.99168899	      6.66944853	      0.37168486	     -5.56876965	    -16.98320085	     11.88259492	     33.65469395	     90.00000001	      0.00000000	      0.00000000	     23.34598294	    -20.67100833	     14.93397419	     55.12311870	     90.00000001	      0.00000000	      0.00000000
      1.47000000	      5.73169038	     -3.82005416	      6.65231053	     -0.96969571	      0.85381565	      0.22328939	     23.53682588	      6.74226350	    -21.67045181	     29.33706203	    -10.18645249	      0.51202833	      4.76551306	      2.89071335	     -7.50440217	    -15.64720216	     -2.72210445	     -1.93654940	     38.63316063	     -5.74652629	      0.67427585	     15.79647662	      6.83319656	     -7.50440217	    -22.10430751	      7.17659571	      0.72815495	     -4.98699382	    -17.16122166	     11.89817814	     33.61511310	     90.00000001	      0.00000000	      0.00000000	     22.19259258	    -20.52113968	     14.92556262	     54.60185957	     90.00000001	      0.00000000	      0.00000000
      1.48000000	      5.57654687	     -4.20386193	      6.11719570	     -0.95619947	      0.85544573	      0.22577862	     22.82195659	      7.61851635	    -21.07264564	     29.51271863	    -10.05293546	      0.51509411	      5.24210825	      2.21830121	     -7.50422310	    -13.76864690	     -3.42062255	     -2.89462279	     42.67462411	     -5.85835852	      0.74481270	     13.39911053	      5.15477630	     -7.50422310	    -21.92483027	      7.48232289	      1.23526227	     -4.25689320	    -17.41362793	     12.07210740	     33.55582733	     90.00000001	      0.00000000	      0.00000000	     21.05404182	    -20.28949396	     14.83832032	     53.92778230	     90.00000001	      0.00000000	      0.00000000
      1.49000000	      5.59971781	     -4.57331612	      5.63159442	     -0.94268539	      0.85759701	      0.22826336	     21.63050343	      8.49706650	    -20.79392400	     29.16985737	     -9.99926912	      0.50911005	      6.05155060	      2.36102656	     -7.50407336	    -12.04154999	     -4.16097707	     -3.86686587	     46.52885800	     -6.06121083	      0.81208177	     11.18005063	      3.27823640	     -7.50407336	    -21.93262827	      7.76533068	      1.76655149	     -3.54430385	    -17.66105257	     12.19051693	     33.63620994	     90.00000001	      0.00000000	      0.00000000	     20.00300145	    -20.10422830	     15.07389239	     53.13749413	     90.00000001	      0.00000000	      0.00000000
      1.50000000	      5.74019659	     -4.87401894	      5.21802291	     -0.92922470	      0.86008867	      0.23060131	     20.08351531	      9.25868284	    -20.60416917	     28.46902693	     -9.87784468	      0.49687825	      7.07818866	      2.95123441	     -7.50400991	    -10.37233370	     -4.87557122	     -5.01031310	     50.18240564	     -6.48749502	      0.87584821	      9.54945321	      1.57469299	     -7.50400991	    -22.05749583	      7.97608073	      2.27010526	     -2.82215906	    -17.87724327	     12.22973367	     33.79788539	     90.00000001	      0.00000000	      0.00000000	     19.02493316	    -19.91691571	     15.47463036	     52.26501483	     90.00000001	      0.00000000	      0.00000000
      1.51000000	      5.67282464	     -5.07629643	      4.70377710	     -0.91626262	      0.86228197	      0.23314609	     18.87543517	      9.90918843	    -20.76222797	     27.81548504	    -10.03716285	      0.48547180	      7.87931260	      4.09584989	     -7.50388342	     -8.29515455	     -5.46182555	     -6.11441478	     53.89372351	     -6.87871292	      0.94062292	      8.23437181	     -1.29121108	     -7.50388342	    -22.02816342	      8.00852321	      2.87920265	     -2.10398165	    -18.12980329	     12.32543792	     34.03253043	     90.00000001	      0.00000000	      0.00000000	     18.13419970	    -19.75354518	     16.05359468	     51.21280478	     90.00000001	      0.00000000	      0.00000000
      1.52000000	      5.73772292	     -4.92052656	      4.41282606	     -0.90361171	      0.86490802	      0.23499633	     17.50764006	      9.87015328	    -21.39288246	     27.26987821	    -10.07961404	      0.47594916	      9.07287430	      6.31319167	     -7.50362281	     -6.35527884	     -5.47050280	     -6.10173290	     57.26180260	     -6.74821221	      0.99940699	      6.67420613	     -6.16919938	     -7.50362281	    -22.17369777	      7.71177517	      3.21594030	     -1.32570668	    -18.33099568	     12.47387490	     34.35599950	     90.00000001	      0.00000000	      0.00000000	     17.40273386	    -19.68449919	     16.94592750	     50.09942258	     90.00000001	      0.00000000	      0.00000000
      1.53000000	      5.90335655	     -4.83063464	      4.08250943	     -0.89093139	      0.86774015	      0.23697994	     15.86834367	     10.03788536	    -21.47765517	     26.44504827	     -9.99444883	      0.46155316	      9.98621143	      7.77533404	     -7.50339187	     -4.49803088	     -5.65363900	     -6.85122233	     60.20297718	     -7.09682668	      1.05074017	      5.91415614	     -9.26614401	     -7.50339187	    -22.43021355	      7.45420015	      3.67849571	     -0.53882316	    -18.53393914	     12.46777008	     34.72258505	     90.00000001	      0.00000000	      0.00000000	     16.70905251	    -19.58624576	     17.90970534	     48.93250789	     90.00000001	      0.00000000	      0.00000000
      1.54000000	      6.33072139	     -4.37959106	      3.68106101	     -0.87855207	      0.87114183	      0.23904283	     13.99198479	      9.75679273	    -21.25916568	     25.89444155	     -9.71858871	      0.45194326	     10.47861321	      8.00727226	     -7.50334445	     -3.08869980	     -5.43781910	     -7.62433341	     62.41937903	     -7.36899569	      1.08942368	      6.39700575	     -9.75387167	     -7.50334445	    -23.08574500	      6.72214897	      4.08048206	      0.40318065	    -18.60832150	     12.41249261	     35.12483303	     90.00000001	      0.00000000	      0.00000000	     15.97882227	    -19.49265722	     18.21777497	     48.15701640	     90.00000001	      0.00000000	      0.00000000
      1.55000000	      6.29406386	     -4.39963226	      3.57831524	     -0.86624152	      0.87359300	      0.24039274	     12.42331085	     10.04854456	    -20.74420494	     24.71817651	     -9.42576852	      0.43141357	     11.34391142	      9.21921808	     -7.50316460	     -0.73880438	     -5.63778761	     -8.02976578	     64.94151606	     -7.69788008	      1.13344328	      5.58930732	    -13.52005559	     -7.50316460	    -23.06751606	      6.67106373	      4.45871430	      1.12757136	    -18.95941241	     12.58016496	     35.54745841	     90.00000001	      0.00000000	      0.00000000	     15.52261202	    -19.44525764	     20.22485799	     46.45104563	     90.00000001	      0.00000000	      0.00000000
      1.56000000	      6.50683459	     -4.03479122	      3.42964358	     -0.85408525	      0.87653469	      0.24165782	     10.64261300	      9.79706638	    -20.15584864	     23.85537586	     -8.95885506	      0.41635485	     12.02881861	      9.52371211	     -7.50310356	      1.11587781	     -5.32461445	     -8.42480214	     66.63000131	     -8.00259041	      1.16291290	      6.30351675	    -14.06220662	     -7.50310356	    -23.41393951	      6.15649780	      4.63260916	      2.10843889	    -19.11024696	     12.56891677	     35.91690788	     90.00000001	      0.00000000	      0.00000000	     14.79839003	    -19.29906757	     20.83091637	     45.33636248	     90.00000001	      0.00000000	      0.00000000
      1.57000000	      6.67903906	     -3.59803192	      3.22042952	     -0.84216582	      0.87928892	      0.24301633	      9.00818268	      9.49323968	    -19.64630657	     23.08858295	     -8.66456650	      0.40297179	     12.47569899	      9.75163438	     -7.50305173	      3.02419950	     -4.93219749	     -8.63790295	     67.97257807	     -7.99323305	      1.18634529	      6.78375845	    -14.23007498	     -7.50305173	    -23.75644845	      5.52769277	      4.86653594	      3.06270245	    -19.27832053	     12.59981414	     36.37396748	     90.00000001	      0.00000000	      0.00000000	     14.11716495	    -19.20181386	     21.50471249	     44.28756866	     90.00000001	      0.00000000	      0.00000000
      1.58000000	      6.73190046	     -3.34629209	      3.15642919	     -0.83045246	      0.88168925	      0.24425669	      7.35122162	      9.46858522	    -18.93461618	     21.90927814	     -8.31168745	      0.38238904	     12.86547217	      9.95527758	     -7.50287695	      5.13475199	     -4.69024428	     -7.73701422	     69.14060808	     -7.08069082	      1.20673126	      6.83010778	    -15.40981100	     -7.50287695	    -23.91375448	      5.12819195	      5.14529908	      3.91422415	    -19.67709722	     13.14335114	     36.94269907	     90.00000001	      0.00000000	      0.00000000	     13.78922177	    -19.34716874	     23.92765856	     42.78774113	     90.00000001	      0.00000000	      0.00000000
